<?xml version="1.0" encoding="utf-8"?>
<!-- Generator: Adobe Illustrator 21.0.2, SVG Export Plug-In . SVG Version: 6.00 Build 0)  -->
<svg version="1.1" id="Capa_1" xmlns="http://www.w3.org/2000/svg" xmlns:xlink="http://www.w3.org/1999/xlink" x="0px" y="0px"
	 viewBox="0 0 512 512" style="enable-background:new 0 0 512 512;" xml:space="preserve">
<style type="text/css">
	.st0{fill:#FFFFFF;}
</style>
<g>
	<g>
		<path class="st0" d="M395,291.5c-2-18.7,6.9-30.1,10.4-33.6c3.2,19.4,19.9,34.3,40.2,34.3c19.2,0,35.3-13.4,39.6-31.3
			c3.3,5.8,8.9,17.8,7.5,30.7c34.1-0.3,17.3-39.2-6.6-43.5c-0.2-2-0.3-4-0.8-5.9c-1.4-12.3-12.4-37.3-44-36.6
			c-27.2,0.6-33.2,21.1-34.6,33.6c-1,3.1-1.6,6.3-1.8,9.6C369.5,255,373.4,290.9,395,291.5z M426.4,239.7c0,0,3.5,1.2,3.5,12.6
			c6,2.1,16.5-17.7,16.5-17.7v15.6c6.7,1.8,27.6-0.6,27.6-0.6l0.8,0.7c0,0.3,0.1,0.7,0.1,1c0,16.2-13.2,29.3-29.3,29.3
			c-15.9,0-28.9-12.8-29.2-28.7C422.1,249.8,426.4,239.7,426.4,239.7z"/>
		<polygon class="st0" points="454.6,297.5 437.5,297.5 423.1,297.5 380.9,348.3 390.1,360.7 421.5,324.7 423.3,339 417.5,348.9 
			451,356.9 474.8,350.5 467.3,339 468.7,321.4 493.3,354.3 509.6,350.3 470.6,297.5 		"/>
		<polygon class="st0" points="411.2,391.7 484.1,370.7 479,352.9 453.5,360.3 447.8,361.9 406.1,373.9 		"/>
		<polygon class="st0" points="413.5,350.9 409.2,368.9 412.7,369.7 449,359.2 		"/>
		<polygon class="st0" points="458.3,380.5 485.4,386.8 489.6,368.8 485.6,367.9 486.3,370.1 486.9,372.2 484.7,372.8 		"/>
		<polygon class="st0" points="262.5,389.4 338.4,367.5 333.1,349 306.4,356.7 268.7,367.6 257.2,370.9 		"/>
		<polygon class="st0" points="344.1,365.5 340,364.5 340.6,366.9 341.3,369.1 339.1,369.7 311.6,377.6 339.7,384.3 		"/>
		<polygon class="st0" points="264.9,346.9 260.5,365.6 264.1,366.5 301.9,355.6 		"/>
		<path class="st0" d="M260.3,243.6c0,20.5,16.6,37.1,37.1,37.1c20.5,0,37.1-16.6,37.1-37.1c0-12.8,4.5-24.5-5.4-31.2
			c-5.9-4-31.9-5.9-39.6-5.9c-9.1,0-21,7.5-27.4,12.9C254,226.3,260.3,232.2,260.3,243.6z M271.6,240c6.8-1.3,11.5,1,11.5,1
			l11.4-5.5c0,0-5.8,8.4-0.6,5.5c11.6-3.9,24.5-2.3,31.1-1c0.2,1.5,0.4,2.9,0.4,4.5c0,15.3-12.2,27.6-27.2,27.6
			c-15,0-27.1-12.3-27.1-27.6C271.1,242.9,271.3,241.4,271.6,240z"/>
		<polygon class="st0" points="365.6,340.2 323.5,288.4 274.5,288.4 223.1,344.8 233.9,355.9 270.6,324.5 270.9,346.1 304.2,353.9 
			328.1,348.2 328.2,325.7 357.6,355.9 		"/>
		<circle class="st0" cx="85.8" cy="117.5" r="39.1"/>
		<polygon class="st0" points="47,327.8 26.7,372.4 39,378 61.8,327.8 95.2,327.8 117.1,377.9 129.4,372.5 109.9,327.8 124.1,327.8 
			124.1,307.6 47,307.6 19.6,198.1 0,203 31.2,327.8 		"/>
		<path class="st0" d="M66.6,168.7L60,301.5h16.2h6.3h9.2h27.9h1.7h15.4h17.9v82.2h35.1V274.2h-2.8h-32.3h-22l0,0h-16.7l0.2-66.2
			l37.9,35.6l0-0.1l3.1-1.3l-5.6,7.1l64.6-5.3l56.2-72.3l-0.4,0l-14.6-26.3l-18.7,29l-30.9,2.5l-24.1,31l-29.1,12.1L111,168.7
			L66.6,168.7L66.6,168.7z M169.8,237l33.9-14.1l-8-19.3l15.6-20.1l46.5-3.8l-45,57.9l-46.4,3.8L169.8,237z"/>
		<rect x="13.2" y="417.3" class="st0" width="493.2" height="16.2"/>
	</g>
</g>
</svg>
